<svg xmlns="http://www.w3.org/2000/svg" xmlns:xlink="http://www.w3.org/1999/xlink" width="1200" zoomAndPan="magnify" viewBox="0 0 900 899.99999" height="1200" preserveAspectRatio="xMidYMid meet" version="1.0"><rect x="-90" width="1080" fill="#000000" y="-89.999999" height="1079.999988" fill-opacity="0.01"/><path fill="#000000" d="M 119.25 0 L 780.75 0 C 782.703125 0 784.652344 0.046875 786.601562 0.144531 C 788.550781 0.238281 790.496094 0.382812 792.4375 0.574219 C 794.378906 0.765625 796.316406 1.003906 798.246094 1.289062 C 800.179688 1.578125 802.101562 1.910156 804.015625 2.292969 C 805.929688 2.671875 807.832031 3.097656 809.726562 3.574219 C 811.617188 4.046875 813.5 4.570312 815.367188 5.136719 C 817.234375 5.703125 819.085938 6.3125 820.925781 6.972656 C 822.761719 7.628906 824.582031 8.332031 826.386719 9.078125 C 828.1875 9.824219 829.972656 10.613281 831.734375 11.449219 C 833.5 12.285156 835.242188 13.160156 836.964844 14.082031 C 838.683594 15 840.382812 15.960938 842.054688 16.964844 C 843.730469 17.96875 845.378906 19.011719 847 20.097656 C 848.625 21.179688 850.21875 22.304688 851.785156 23.46875 C 853.355469 24.628906 854.894531 25.832031 856.402344 27.070312 C 857.910156 28.304688 859.386719 29.582031 860.832031 30.890625 C 862.28125 32.203125 863.691406 33.546875 865.074219 34.925781 C 866.453125 36.308594 867.796875 37.71875 869.109375 39.167969 C 870.417969 40.613281 871.691406 42.089844 872.929688 43.597656 C 874.167969 45.105469 875.371094 46.644531 876.53125 48.210938 C 877.695312 49.78125 878.816406 51.375 879.902344 53 C 880.988281 54.621094 882.03125 56.269531 883.035156 57.941406 C 884.039062 59.617188 885 61.316406 885.917969 63.035156 C 886.839844 64.757812 887.714844 66.5 888.550781 68.265625 C 889.386719 70.027344 890.175781 71.8125 890.921875 73.613281 C 891.667969 75.417969 892.371094 77.238281 893.027344 79.074219 C 893.6875 80.914062 894.296875 82.765625 894.863281 84.632812 C 895.429688 86.5 895.953125 88.382812 896.425781 90.273438 C 896.898438 92.167969 897.328125 94.070312 897.707031 95.984375 C 898.089844 97.898438 898.421875 99.820312 898.710938 101.753906 C 898.996094 103.683594 899.234375 105.621094 899.425781 107.5625 C 899.617188 109.503906 899.761719 111.449219 899.855469 113.398438 C 899.953125 115.347656 900 117.296875 900 119.25 L 900 780.75 C 900 782.703125 899.953125 784.652344 899.855469 786.601562 C 899.761719 788.550781 899.617188 790.496094 899.425781 792.4375 C 899.234375 794.378906 898.996094 796.316406 898.710938 798.246094 C 898.421875 800.179688 898.089844 802.101562 897.707031 804.015625 C 897.328125 805.929688 896.898438 807.832031 896.425781 809.726562 C 895.953125 811.617188 895.429688 813.5 894.863281 815.367188 C 894.296875 817.234375 893.6875 819.085938 893.027344 820.925781 C 892.371094 822.761719 891.667969 824.582031 890.921875 826.386719 C 890.175781 828.1875 889.386719 829.972656 888.550781 831.734375 C 887.714844 833.5 886.839844 835.242188 885.917969 836.964844 C 885 838.683594 884.039062 840.382812 883.035156 842.054688 C 882.03125 843.730469 880.988281 845.378906 879.902344 847 C 878.816406 848.625 877.695312 850.21875 876.53125 851.785156 C 875.371094 853.355469 874.167969 854.894531 872.929688 856.402344 C 871.691406 857.910156 870.417969 859.386719 869.109375 860.832031 C 867.796875 862.28125 866.453125 863.691406 865.074219 865.074219 C 863.691406 866.453125 862.28125 867.796875 860.832031 869.109375 C 859.386719 870.417969 857.910156 871.691406 856.402344 872.929688 C 854.894531 874.167969 853.355469 875.371094 851.785156 876.53125 C 850.21875 877.695312 848.625 878.816406 847 879.902344 C 845.378906 880.988281 843.730469 882.03125 842.058594 883.035156 C 840.382812 884.039062 838.683594 885 836.964844 885.917969 C 835.242188 886.839844 833.5 887.714844 831.734375 888.550781 C 829.972656 889.386719 828.1875 890.175781 826.386719 890.921875 C 824.582031 891.667969 822.761719 892.371094 820.925781 893.027344 C 819.085938 893.6875 817.234375 894.296875 815.367188 894.863281 C 813.5 895.429688 811.617188 895.953125 809.726562 896.425781 C 807.832031 896.898438 805.929688 897.328125 804.015625 897.707031 C 802.101562 898.089844 800.179688 898.421875 798.246094 898.710938 C 796.316406 898.996094 794.378906 899.234375 792.4375 899.425781 C 790.496094 899.617188 788.550781 899.761719 786.601562 899.855469 C 784.652344 899.953125 782.703125 900 780.75 900 L 119.25 900 C 117.296875 900 115.347656 899.953125 113.398438 899.855469 C 111.449219 899.761719 109.503906 899.617188 107.5625 899.425781 C 105.621094 899.234375 103.683594 898.996094 101.753906 898.710938 C 99.820312 898.421875 97.898438 898.089844 95.984375 897.707031 C 94.070312 897.328125 92.167969 896.898438 90.273438 896.425781 C 88.382812 895.953125 86.5 895.429688 84.632812 894.863281 C 82.765625 894.296875 80.914062 893.6875 79.074219 893.027344 C 77.238281 892.371094 75.417969 891.667969 73.613281 890.921875 C 71.8125 890.175781 70.027344 889.386719 68.265625 888.550781 C 66.5 887.714844 64.757812 886.839844 63.035156 885.917969 C 61.316406 885 59.617188 884.039062 57.941406 883.035156 C 56.269531 882.03125 54.621094 880.988281 53 879.902344 C 51.375 878.816406 49.78125 877.695312 48.210938 876.53125 C 46.644531 875.371094 45.105469 874.167969 43.597656 872.929688 C 42.089844 871.691406 40.613281 870.417969 39.167969 869.109375 C 37.71875 867.796875 36.308594 866.453125 34.925781 865.074219 C 33.546875 863.691406 32.203125 862.28125 30.890625 860.832031 C 29.582031 859.386719 28.304688 857.910156 27.070312 856.402344 C 25.832031 854.894531 24.628906 853.355469 23.46875 851.785156 C 22.304688 850.21875 21.179688 848.625 20.097656 847 C 19.011719 845.378906 17.96875 843.730469 16.964844 842.058594 C 15.960938 840.382812 15 838.683594 14.082031 836.964844 C 13.160156 835.242188 12.285156 833.5 11.449219 831.734375 C 10.613281 829.972656 9.824219 828.1875 9.078125 826.386719 C 8.332031 824.582031 7.628906 822.761719 6.972656 820.925781 C 6.3125 819.085938 5.703125 817.234375 5.136719 815.367188 C 4.566406 813.5 4.046875 811.617188 3.574219 809.726562 C 3.097656 807.832031 2.671875 805.929688 2.292969 804.015625 C 1.910156 802.101562 1.578125 800.179688 1.289062 798.246094 C 1.003906 796.316406 0.765625 794.378906 0.574219 792.4375 C 0.382812 790.496094 0.238281 788.550781 0.144531 786.601562 C 0.046875 784.652344 0 782.703125 0 780.75 L 0 119.25 C 0 117.296875 0.046875 115.347656 0.144531 113.398438 C 0.238281 111.449219 0.382812 109.503906 0.574219 107.5625 C 0.765625 105.621094 1.003906 103.683594 1.289062 101.753906 C 1.578125 99.820312 1.910156 97.898438 2.292969 95.984375 C 2.671875 94.070312 3.097656 92.167969 3.574219 90.273438 C 4.046875 88.382812 4.566406 86.5 5.136719 84.632812 C 5.703125 82.765625 6.3125 80.914062 6.972656 79.074219 C 7.628906 77.238281 8.332031 75.417969 9.078125 73.613281 C 9.824219 71.8125 10.613281 70.027344 11.449219 68.265625 C 12.285156 66.5 13.160156 64.757812 14.082031 63.035156 C 15 61.316406 15.960938 59.617188 16.964844 57.941406 C 17.96875 56.269531 19.011719 54.621094 20.097656 53 C 21.179688 51.375 22.304688 49.78125 23.46875 48.210938 C 24.628906 46.644531 25.832031 45.105469 27.070312 43.597656 C 28.304688 42.089844 29.582031 40.613281 30.890625 39.167969 C 32.203125 37.71875 33.546875 36.308594 34.925781 34.925781 C 36.308594 33.546875 37.71875 32.203125 39.167969 30.890625 C 40.613281 29.582031 42.089844 28.304688 43.597656 27.070312 C 45.105469 25.832031 46.644531 24.628906 48.210938 23.46875 C 49.78125 22.304688 51.375 21.179688 53 20.097656 C 54.621094 19.011719 56.269531 17.96875 57.941406 16.964844 C 59.617188 15.960938 61.316406 15 63.035156 14.082031 C 64.757812 13.160156 66.5 12.285156 68.265625 11.449219 C 70.027344 10.613281 71.8125 9.824219 73.613281 9.078125 C 75.417969 8.332031 77.238281 7.628906 79.074219 6.972656 C 80.914062 6.3125 82.765625 5.703125 84.632812 5.136719 C 86.5 4.570312 88.382812 4.046875 90.273438 3.574219 C 92.167969 3.097656 94.070312 2.671875 95.984375 2.292969 C 97.898438 1.910156 99.820312 1.578125 101.753906 1.289062 C 103.683594 1.003906 105.621094 0.765625 107.5625 0.574219 C 109.503906 0.382812 111.449219 0.238281 113.398438 0.144531 C 115.347656 0.046875 117.296875 0 119.25 0 Z M 119.25 0 " fill-opacity="0.9" fill-rule="nonzero"/><path fill="#ffffff" d="M 339.847656 674.25 C 308.097656 674.25 282.222656 668.875 262.222656 658.125 C 242.222656 647.375 226.597656 633.75 215.347656 617.25 C 204.347656 600.75 196.472656 583.625 191.722656 565.875 C 186.972656 547.875 184.097656 531.5 183.097656 516.75 C 182.097656 502 181.597656 491.25 181.597656 484.5 L 181.597656 257.25 L 285.097656 257.25 L 285.097656 448.5 C 285.097656 457.75 285.597656 469.625 286.597656 484.125 C 287.597656 498.375 290.722656 512.75 295.972656 527.25 C 301.222656 541.75 309.722656 553.875 321.472656 563.625 C 333.472656 573.375 350.347656 578.25 372.097656 578.25 C 380.847656 578.25 390.222656 576.875 400.222656 574.125 C 410.222656 571.375 419.597656 566.125 428.347656 558.375 C 437.097656 550.375 444.222656 538.75 449.722656 523.5 C 455.472656 508 458.347656 487.75 458.347656 462.75 L 516.847656 490.5 C 516.847656 522.5 510.347656 552.5 497.347656 580.5 C 484.347656 608.5 464.722656 631.125 438.472656 648.375 C 412.472656 665.625 379.597656 674.25 339.847656 674.25 Z M 471.097656 662.25 L 471.097656 528 L 458.347656 528 L 458.347656 257.25 L 561.097656 257.25 L 561.097656 662.25 Z M 471.097656 662.25 " fill-opacity="1" fill-rule="nonzero"/><path fill="#1e88e5" d="M 726.117188 662.25 L 726.117188 560.25 L 624.117188 560.25 L 624.117188 662.25 Z M 726.117188 662.25 " fill-opacity="1" fill-rule="nonzero"/></svg>